{"title":"Easy Rider 1969 DVDrip English Klam","uid":5882548,"size":1467222578,"categoryP":"video","categoryS":"movies","magnet":"?xt=urn:btih:d5ecf3f9bccea9b8bef8c58e2fe9a59514973807&amp;dn=Easy+Rider+1969+DVDrip+English+Klam&amp;tr=udp%3A%2F%2Ftracker.openbittorrent.com%3A80&amp;tr=udp%3A%2F%2Fopen.demonii.com%3A1337&amp;tr=udp%3A%2F%2Ftracker.coppersurfer.tk%3A6969&amp;tr=udp%3A%2F%2Fexodus.desync.com%3A6969","seeders":0,"leechers":0,"uploader":"Klambake","files":5,"time":1286883073,"description":"With: Dennis Hopper, Peter Fonda en Jack Nicholson\n\nWyatt and Billy are two motorcycle riders (bikers) on their way to Mardis Gras, and encounter hitchhikers, a drunken lawyer, a jail cell, a whorehouse and the death of a friend.\n\nGeneral:\n\nComplete name                    : Klambake\\Easy\\Rider.avi\nFormat                           : AVI\nFormat/Info                      : Audio Video Interleave\nFile size                        : 1.37 GiB\nDuration                         : 1h 31mn\nOverall bit rate                 : 2 131 Kbps\n\nVideo:\n\nFormat                           : MPEG-4 Visual\nFormat profile                   : Simple@L3\nFormat settings, BVOP            : No\nFormat settings, QPel            : No\nFormat settings, GMC             : No warppoints\nFormat settings, Matrix          : Default (H.263)\nCodec ID                         : XVID\nCodec ID/Hint                    : XviD\nDuration                         : 1h 31mn\nBit rate                         : 1 673 Kbps\nWidth                            : 720 pixels\nHeight                           : 576 pixels\nDisplay aspect ratio             : 5:4\nFrame rate                       : 25.000 fps\nStandard                         : PAL\nColor space                      : YUV\nChroma subsampling               : 4:2:0\nBit depth                        : 8 bits\nScan type                        : Progressive\nBits/(Pixel*Frame)               : 0.161\nStream size                      : 1.07 GiB (78%)\nWriting library                  : XviD 1.1.2 (UTC 2006-11-01)\n\nAudio:\n\nFormat                           : AC-3\nFormat/Info                      : Audio Coding 3\nMode extension                   : CM (complete main)\nCodec ID                         : 2000\nDuration                         : 1h 31mn\nBit rate mode                    : Constant\nBit rate                         : 448 Kbps\nChannel(s)                       : 6 channels\nChannel positions                : Front: L C R, Side: L R, LFE\nSampling rate                    : 48.0 KHz\nBit depth                        : 16 bits\nStream size                      : 294 MiB (21%)\nAlignment                        : Aligned on interleaves\nInterleave, duration             : 32 ms (0.80 video frame)\nInterleave, preload duration     : 1344 ms","torrent":{"xt":"urn:btih:d5ecf3f9bccea9b8bef8c58e2fe9a59514973807","amp;dn":"Easy+Rider+1969+DVDrip+English+Klam","amp;tr":["udp%3A%2F%2Ftracker.openbittorrent.com%3A80","udp%3A%2F%2Fopen.demonii.com%3A1337","udp%3A%2F%2Ftracker.coppersurfer.tk%3A6969","udp%3A%2F%2Fexodus.desync.com%3A6969"],"infoHash":"d5ecf3f9bccea9b8bef8c58e2fe9a59514973807","infoHashBuffer":{"type":"Buffer","data":[213,236,243,249,188,206,169,184,190,248,197,142,47,233,165,149,20,151,56,7]},"announce":[],"urlList":[]}}